<svg version="1" xmlns="http://www.w3.org/2000/svg" width="666.667" height="666.667" viewBox="0 0 500.000000 500.000000"><path d="M108 181v131h26v-94h12.9c21.7 0 46.9 3.4 55.7 7.6 5.6 2.7 11.7 9.1 14.8 15.8 3.4 7.1 4.5 19.8 4.6 49.9v19.8l12.3-.3 12.2-.3.3-29c.3-31.4-.5-42-3.8-50.8-5.3-14-17.6-24.5-36-30.6-12.5-4.1-22.5-5.3-47.1-5.8-13-.3-24.3-.9-25-1.4-1.2-.7-1.4-12-1.1-69.1.1-37.6.5-69.5.8-71.1l.6-2.7H108v131zM297.5 123.4c-11.8 3.8-20.9 9.2-29.9 17.6-4.4 4.1-13.6 15.8-13.6 17.4 0 .3 2.3-.4 5.2-1.5 6.1-2.4 9.9-2 15.2 1.6l3.6 2.4 3-4.3c8.8-12.9 26-21.6 42.5-21.6 25.2.1 41.5 17.6 41.9 45.1l.1 7.9H389.2l-2.3-3.8c-1.2-2-5.6-8.5-9.7-14.4-19.6-28.2-35.9-43-52.7-47.4-7.7-2.1-18.9-1.7-27 1z"/><path d="M258.2 162c-6.5 4-8.7 10.9-5.6 17.6 4.4 9.2 18.1 9.9 23.4 1.1 7.1-11.6-6.3-25.7-17.8-18.7zM251 321v131h27.2l-.6-8.3c-.3-4.5-.7-36.5-.9-71-.2-54.8 0-62.9 1.3-63.7.8-.5 9.7-1 19.8-1 21.2 0 33.9-1.2 46.6-4.5 24.1-6.1 39.1-19 44.1-38 1.7-6.6 3.4-61.4 2.1-69.8l-.7-4.7H366l-.1 4.2c0 2.4-.4 16.2-.9 30.8-.7 23.9-1 27.1-3.1 32.3-2.6 6.7-9.5 14.9-14.8 17.7-8.6 4.3-34.8 8-57.2 8H277v-94h-26v131z"/></svg>